<?xml version="1.0" encoding="UTF-8" standalone="no"?>
<!DOCTYPE svg PUBLIC "-//W3C//DTD SVG 1.1//EN" "http://www.w3.org/Graphics/SVG/1.1/DTD/svg11.dtd">
<svg width="544" height="374" viewBox="0 0 9804 6733" version="1.1" xmlns="http://www.w3.org/2000/svg" xmlns:xlink="http://www.w3.org/1999/xlink" xml:space="preserve" xmlns:serif="http://www.serif.com/" style="fill-rule:evenodd;clip-rule:evenodd;stroke-linecap:round;stroke-linejoin:round;stroke-miterlimit:1.5;">
    <g id="DigiDoc-framework" serif:id="DigiDoc framework" transform="matrix(0.768519,0,0,0.527778,0,0)">
        <rect x="0" y="0" width="12755.9" height="12755.9" style="fill:none;"/>
        <g transform="matrix(1.3012,0,0,1.89474,-2188.71,-4598.94)">
            <g transform="matrix(1,0,0,1,-347.655,-489.997)">
                <g transform="matrix(4.24345,0,0,1.36975,-4211.56,-1830.72)">
                    <path d="M3310.2,4993.92C3310.2,4970.39 3304.03,4951.29 3296.44,4951.29L1809.35,4951.29C1801.76,4951.29 1795.59,4970.39 1795.59,4993.92L1795.59,5761.31C1795.59,5784.84 1801.76,5803.95 1809.35,5803.95L3296.44,5803.95C3304.03,5803.95 3310.2,5784.84 3310.2,5761.31L3310.2,4993.92Z" style="fill:rgb(130,187,255);stroke:rgb(0,49,104);stroke-width:5.29px;"/>
                </g>
                <g transform="matrix(1,0,0,1,-2084.72,-437.618)">
                    <text x="7464.32px" y="5887.28px" style="font-family:'ArialMT', 'Arial', sans-serif;font-size:324.589px;">DigiDoc Libraries</text>
                    <text x="7689.85px" y="6222.49px" style="font-family:'ArialMT', 'Arial', sans-serif;font-size:324.589px;">(C, C++ Java)</text>
                </g>
            </g>
            <g transform="matrix(1,0,0,1,3473.88,317.174)">
                <g transform="matrix(1.72109,0,0,1.64188,2227.76,-3178.15)">
                    <path d="M3310.2,4993.92C3310.2,4970.39 3291.98,4951.29 3269.53,4951.29L1836.26,4951.29C1813.81,4951.29 1795.59,4970.39 1795.59,4993.92L1795.59,5761.31C1795.59,5784.84 1813.81,5803.95 1836.26,5803.95L3269.53,5803.95C3291.98,5803.95 3310.2,5784.84 3310.2,5761.31L3310.2,4993.92Z" style="fill:rgb(130,187,255);stroke:rgb(0,49,104);stroke-width:9.91px;"/>
                </g>
                <g transform="matrix(1,0,0,1,-2075.92,-455.048)">
                    <text x="7671.86px" y="5887.28px" style="font-family:'ArialMT', 'Arial', sans-serif;font-size:324.589px;">MS CryptoAPI</text>
                    <text x="7999.3px" y="6222.49px" style="font-family:'ArialMT', 'Arial', sans-serif;font-size:324.589px;">PKCS#1<tspan x="9220.15px " y="6222.49px ">1</tspan></text>
                    <text x="7987.26px" y="6557.7px" style="font-family:'ArialMT', 'Arial', sans-serif;font-size:324.589px;">PKCS#12</text>
                </g>
            </g>
            <g transform="matrix(1,0,0,1,-3939.94,802.761)">
                <g transform="matrix(1.20572,0,0,0.775021,3543.44,1367.48)">
                    <path d="M3310.2,4993.92C3310.2,4970.39 3297.92,4951.29 3282.8,4951.29L1822.99,4951.29C1807.87,4951.29 1795.59,4970.39 1795.59,4993.92L1795.59,5761.31C1795.59,5784.84 1807.87,5803.95 1822.99,5803.95L3282.8,5803.95C3297.92,5803.95 3310.2,5784.84 3310.2,5761.31L3310.2,4993.92Z" style="fill:rgb(130,187,255);stroke:rgb(0,49,104);stroke-width:16.44px;"/>
                </g>
                <g transform="matrix(1,0,0,1,-2083.45,-235.859)">
                    <text x="8240.05px" y="5887.28px" style="font-family:'ArialMT', 'Arial', sans-serif;font-size:324.589px;">MSSP</text>
                </g>
            </g>
            <g transform="matrix(1,0,0,1,-1273.65,-1593)">
                <g>
                    <g transform="matrix(2.3175,0,0,0.775021,705.985,1399.66)">
                        <path d="M3310.2,4993.92C3310.2,4970.39 3303.81,4951.29 3295.94,4951.29L1809.85,4951.29C1801.98,4951.29 1795.59,4970.39 1795.59,4993.92L1795.59,5761.31C1795.59,5784.84 1801.98,5803.95 1809.85,5803.95L3295.94,5803.95C3303.81,5803.95 3310.2,5784.84 3310.2,5761.31L3310.2,4993.92Z" style="fill:rgb(130,187,255);stroke:rgb(0,49,104);stroke-width:9.65px;"/>
                    </g>
                    <g transform="matrix(1,0,0,1,-2083.45,-235.859)">
                        <text x="7121.82px" y="5887.28px" style="font-family:'ArialMT', 'Arial', sans-serif;font-size:324.589px;">MID/SID Rest Service</text>
                    </g>
                </g>
            </g>
            <g transform="matrix(1,0,0,1,1538.71,-2194.74)">
                <g transform="matrix(1.20572,0,0,1.93275,3543.44,-4713.26)">
                    <path d="M3310.2,4993.92C3310.2,4970.39 3279.58,4951.29 3241.86,4951.29L1863.93,4951.29C1826.21,4951.29 1795.59,4970.39 1795.59,4993.92L1795.59,5761.31C1795.59,5784.84 1826.21,5803.95 1863.93,5803.95L3241.86,5803.95C3279.58,5803.95 3310.2,5784.84 3310.2,5761.31L3310.2,4993.92Z" style="fill:rgb(141,214,234);stroke:rgb(0,49,104);stroke-width:10.35px;"/>
                </g>
                <g transform="matrix(1,0,0,1,-2083.45,-235.859)">
                    <text x="8131.8px" y="5887.28px" style="font-family:'ArialMT', 'Arial', sans-serif;font-size:324.589px;">DigiDoc4</text>
                    <text x="8285.06px" y="6222.49px" style="font-family:'ArialMT', 'Arial', sans-serif;font-size:324.589px;">Client</text>
                </g>
            </g>
            <g transform="matrix(1,0,0,1,1762.72,-2353.24)">
                <g transform="matrix(4.16667,0,0,4.16667,7700.1,10330.6)">
                    <path d="M294,10.08C294,8.954 293.086,8.04 291.96,8.04L11.68,8.04C10.554,8.04 9.64,8.954 9.64,10.08L9.64,185.56C9.64,186.686 10.554,187.6 11.68,187.6L291.96,187.6C293.086,187.6 294,186.686 294,185.56L294,10.08Z" style="fill:white;"/>
                </g>
                <g transform="matrix(4.16667,0,0,4.16667,6294.9,6684.23)">
                    <path d="M609.81,1070.77L368.33,1070.77C351.286,1070.75 337.266,1056.73 337.25,1039.69L337.25,906.21C337.266,889.166 351.286,875.146 368.33,875.13L609.81,875.13C626.854,875.146 640.874,889.166 640.89,906.21L640.89,1039.69C640.874,1056.73 626.854,1070.75 609.81,1070.77ZM368.33,885.77C357.105,885.781 347.871,895.015 347.86,906.24L347.86,1039.72C347.871,1050.94 357.105,1060.18 368.33,1060.19L609.81,1060.19C621.033,1060.17 630.264,1050.94 630.28,1039.72L630.28,906.21C630.264,894.987 621.033,885.756 609.81,885.74L368.33,885.77Z" style="fill:rgb(0,49,104);fill-rule:nonzero;"/>
                </g>
                <g transform="matrix(4.16667,0,0,4.16667,6294.9,6684.23)">
                    <path d="M386,1022.43L386,991.35C386.022,982.658 393.168,975.512 401.86,975.49L479.15,975.49C487.838,975.517 494.978,982.662 495,991.35L495,1047.6" style="fill:white;fill-rule:nonzero;"/>
                </g>
                <g transform="matrix(4.16667,0,0,4.16667,6294.9,6684.23)">
                    <path d="M500.28,1047.6L489.67,1047.6L489.67,991.34C489.665,985.555 484.905,980.795 479.12,980.79L401.83,980.79C396.045,980.795 391.285,985.555 391.28,991.34L391.28,1022.43L380.67,1022.43L380.67,991.34C380.681,979.736 390.226,970.191 401.83,970.18L479.12,970.18C490.724,970.191 500.269,979.736 500.28,991.34L500.28,1047.6Z" style="fill:rgb(0,49,104);fill-rule:nonzero;"/>
                </g>
                <g transform="matrix(4.16667,0,0,4.16667,7700.1,10330.6)">
                    <circle cx="103.23" cy="57.14" r="23.31" style="fill:white;"/>
                </g>
                <g transform="matrix(4.16667,0,0,4.16667,6294.9,6684.23)">
                    <path d="M440.47,960.88C424.77,960.88 411.85,947.96 411.85,932.26C411.85,916.56 424.77,903.64 440.47,903.64C456.17,903.64 469.09,916.56 469.09,932.26C469.09,932.263 469.09,932.267 469.09,932.27C469.074,947.963 456.163,960.869 440.47,960.88ZM440.47,914.26C430.595,914.26 422.47,922.385 422.47,932.26C422.47,942.135 430.595,950.26 440.47,950.26C450.345,950.26 458.47,942.135 458.47,932.26C458.47,922.385 450.345,914.26 440.47,914.26Z" style="fill:rgb(0,49,104);fill-rule:nonzero;"/>
                </g>
                <g transform="matrix(4.16667,0,0,4.16667,7700.1,10330.6)">
                    <rect x="181.52" y="45.95" width="77.39" height="10.61" style="fill:rgb(0,49,104);"/>
                </g>
                <g transform="matrix(4.16667,0,0,4.16667,7700.1,10330.6)">
                    <rect x="181.52" y="73.92" width="77.39" height="10.61" style="fill:rgb(0,49,104);"/>
                </g>
            </g>
            <g transform="matrix(1,0,0,1,-30,-1729.45)">
                <g transform="matrix(1,0,0,1,0,1059.29)">
                    <g transform="matrix(1,0,0,1,-2842.16,1975.27)">
                        <g transform="matrix(17.204,0,0,21.1623,-5286.76,-822.94)">
                            <ellipse cx="772.036" cy="292.306" rx="47.009" ry="9.045" style="fill:none;stroke:rgb(0,49,104);stroke-width:1.51px;"/>
                        </g>
                        <g transform="matrix(17.9722,0,0,17.9722,-5895.89,152.882)">
                            <path d="M727.961,289.885L727.961,320.064" style="fill:none;stroke:rgb(0,49,104);stroke-width:1.62px;"/>
                        </g>
                        <g transform="matrix(17.9722,0,0,17.9722,-4277.2,152.882)">
                            <path d="M727.961,289.885L727.961,320.252" style="fill:none;stroke:rgb(0,49,104);stroke-width:1.62px;"/>
                        </g>
                        <g transform="matrix(17.9722,0,0,17.9722,-5891.84,447.391)">
                            <path d="M727.71,303.837C728.233,317.887 815.756,318.179 817.731,304.039" style="fill:none;stroke:rgb(0,49,104);stroke-width:1.62px;"/>
                        </g>
                    </g>
                    <g transform="matrix(1,0,0,1,-1722.37,3112.1)">
                        <g transform="matrix(17.204,0,0,21.1623,-5286.76,-822.94)">
                            <ellipse cx="772.036" cy="292.306" rx="47.009" ry="9.045" style="fill:none;stroke:rgb(0,49,104);stroke-width:1.51px;"/>
                        </g>
                        <g transform="matrix(17.9722,0,0,17.9722,-5895.89,152.882)">
                            <path d="M727.961,289.885L727.961,320.064" style="fill:none;stroke:rgb(0,49,104);stroke-width:1.62px;"/>
                        </g>
                        <g transform="matrix(17.9722,0,0,17.9722,-4277.2,152.882)">
                            <path d="M727.961,289.885L727.961,320.252" style="fill:none;stroke:rgb(0,49,104);stroke-width:1.62px;"/>
                        </g>
                        <g transform="matrix(17.9722,0,0,17.9722,-5891.84,447.391)">
                            <path d="M727.71,303.837C728.233,317.887 815.756,318.179 817.731,304.039" style="fill:none;stroke:rgb(0,49,104);stroke-width:1.62px;"/>
                        </g>
                    </g>
                    <g transform="matrix(1,0,0,1,-602.578,1975.27)">
                        <g transform="matrix(17.204,0,0,21.1623,-5286.76,-822.94)">
                            <ellipse cx="772.036" cy="292.306" rx="47.009" ry="9.045" style="fill:none;stroke:rgb(0,49,104);stroke-width:1.51px;"/>
                        </g>
                        <g transform="matrix(17.9722,0,0,17.9722,-5895.89,152.882)">
                            <path d="M727.961,289.885L727.961,320.064" style="fill:none;stroke:rgb(0,49,104);stroke-width:1.62px;"/>
                        </g>
                        <g transform="matrix(17.9722,0,0,17.9722,-4277.2,152.882)">
                            <path d="M727.961,289.885L727.961,320.252" style="fill:none;stroke:rgb(0,49,104);stroke-width:1.62px;"/>
                        </g>
                        <g transform="matrix(17.9722,0,0,17.9722,-5891.84,447.391)">
                            <path d="M727.71,303.837C728.233,317.887 815.756,318.179 817.731,304.039" style="fill:none;stroke:rgb(0,49,104);stroke-width:1.62px;"/>
                        </g>
                    </g>
                </g>
                <g transform="matrix(1,0,0,1,-2763.63,3087.2)">
                    <text x="7464.32px" y="5887.28px" style="font-family:'ArialMT', 'Arial', sans-serif;font-size:324.589px;">OCSP</text>
                </g>
                <g transform="matrix(1,0,0,1,-1462.36,4224.03)">
                    <text x="7464.32px" y="5887.28px" style="font-family:'ArialMT', 'Arial', sans-serif;font-size:324.589px;">TSL</text>
                </g>
                <g transform="matrix(1,0,0,1,-359.607,3087.2)">
                    <text x="7464.32px" y="5887.28px" style="font-family:'ArialMT', 'Arial', sans-serif;font-size:324.589px;">TSA</text>
                </g>
            </g>
            <g transform="matrix(1,0,0,1,-996.824,-1976.4)">
                <g transform="matrix(4.16667,0,0,4.16667,3310.45,9524.6)">
                    <rect x="63.61" y="263.85" width="51.87" height="10.6" style="fill:rgb(0,49,104);"/>
                </g>
                <g transform="matrix(4.16667,0,0,4.16667,3310.45,9524.6)">
                    <rect x="7.89" y="240.91" width="163.3" height="10.6" style="fill:rgb(0,49,104);"/>
                </g>
                <g transform="matrix(4.16667,0,0,4.16667,-1135.22,6095.6)">
                    <path d="M1212.54,1121.6L1098,1121.6C1081.01,1121.56 1067.04,1107.59 1067,1090.6L1067,854C1067.04,837.01 1081.01,823.044 1098,823L1212.54,823C1229.53,823.044 1243.5,837.01 1243.54,854L1243.54,1090.55C1243.52,1107.56 1229.55,1121.55 1212.54,1121.6ZM1098,833.55C1086.79,833.566 1077.57,842.789 1077.56,854L1077.56,1090.55C1077.57,1101.76 1086.79,1110.98 1098,1111L1212.54,1111C1223.75,1110.99 1232.98,1101.76 1232.99,1090.55L1232.99,854C1232.98,842.786 1223.75,833.561 1212.54,833.55L1098,833.55Z" style="fill:rgb(0,49,104);fill-rule:nonzero;"/>
                </g>
                <g transform="matrix(4.16667,0,0,4.16667,-1135.22,6095.6)">
                    <path d="M1141.82,902.09C1154.44,899.795 1167.43,900.48 1179.74,904.09C1179.9,904.141 1180.06,904.168 1180.23,904.17C1181.18,904.153 1181.95,903.368 1181.95,902.42C1181.95,901.657 1181.45,900.978 1180.72,900.75C1167.88,896.988 1154.35,896.282 1141.19,898.69C1140.37,898.841 1139.76,899.567 1139.76,900.405C1139.76,901.362 1140.55,902.149 1141.51,902.149C1141.61,902.149 1141.72,902.139 1141.82,902.12L1141.82,902.09Z" style="fill:rgb(0,49,104);fill-rule:nonzero;"/>
                </g>
                <g transform="matrix(4.16667,0,0,4.16667,-1135.22,6095.6)">
                    <path d="M1180.23,905.39C1179.95,905.391 1179.66,905.35 1179.39,905.27C1167.27,901.725 1154.48,901.058 1142.05,903.32C1140.43,903.616 1138.86,902.528 1138.56,900.91C1138.41,900.129 1138.58,899.32 1139.04,898.67C1139.49,898.014 1140.19,897.564 1140.97,897.42C1154.32,894.99 1168.05,895.705 1181.07,899.51C1182.35,899.882 1183.23,901.061 1183.23,902.39C1183.23,904.036 1181.88,905.39 1180.23,905.39ZM1156.57,899.49C1164.53,899.484 1172.45,900.619 1180.09,902.86C1180.46,902.86 1180.64,902.73 1180.7,902.53C1180.74,902.274 1180.6,902.022 1180.36,901.92C1167.71,898.24 1154.38,897.555 1141.42,899.92C1141.16,899.975 1140.99,900.228 1141.03,900.49C1141.05,900.622 1141.13,900.738 1141.24,900.81C1141.34,900.879 1141.47,900.905 1141.59,900.88C1146.53,899.968 1151.55,899.503 1156.57,899.49Z" style="fill:rgb(0,49,104);fill-rule:nonzero;"/>
                </g>
                <g transform="matrix(4.16667,0,0,4.16667,-1135.22,6095.6)">
                    <path d="M1120.66,924.92C1143.75,910.614 1173.27,911.403 1195.56,926.92C1195.85,927.125 1196.2,927.235 1196.56,927.235C1197.52,927.235 1198.31,926.447 1198.31,925.49C1198.31,924.921 1198.03,924.386 1197.56,924.06C1174.13,907.756 1143.11,906.917 1118.83,921.93C1118.31,922.25 1117.99,922.819 1117.99,923.43C1117.99,924.395 1118.79,925.19 1119.75,925.19C1120.08,925.19 1120.39,925.1 1120.67,924.93L1120.66,924.92Z" style="fill:rgb(0,49,104);fill-rule:nonzero;"/>
                </g>
                <g transform="matrix(4.16667,0,0,4.16667,-1135.22,6095.6)">
                    <path d="M1196.55,928.51C1195.93,928.511 1195.33,928.322 1194.83,927.97C1172.96,912.743 1143.99,911.955 1121.32,925.97C1120.85,926.264 1120.3,926.419 1119.74,926.419C1118.09,926.419 1116.74,925.063 1116.74,923.415C1116.74,922.375 1117.28,921.407 1118.16,920.86C1142.86,905.58 1174.43,906.435 1198.27,923.03C1199.07,923.591 1199.55,924.51 1199.55,925.49C1199.55,927.136 1198.2,928.49 1196.55,928.49C1196.55,928.49 1196.55,928.49 1196.55,928.49L1196.55,928.51ZM1156.55,913.45C1170.75,913.419 1184.62,917.772 1196.25,925.91C1196.47,926.063 1196.78,926.009 1196.93,925.79C1197.06,925.565 1197.01,925.277 1196.81,925.11C1185.01,916.852 1170.95,912.436 1156.55,912.47C1143.46,912.474 1130.63,916.121 1119.49,923C1119.28,923.155 1119.22,923.438 1119.33,923.67C1119.42,923.815 1119.57,923.905 1119.74,923.905C1119.83,923.905 1119.92,923.879 1120,923.83C1130.99,917.036 1143.65,913.434 1156.57,913.43L1156.55,913.45Z" style="fill:rgb(0,49,104);fill-rule:nonzero;"/>
                </g>
                <g transform="matrix(4.16667,0,0,4.16667,-1135.22,6095.6)">
                    <path d="M1201.64,946.89C1190.72,933.171 1174.12,925.163 1156.58,925.163C1138.36,925.163 1121.18,933.812 1110.33,948.45C1110.11,948.75 1109.99,949.112 1109.99,949.485C1109.99,950.44 1110.78,951.226 1111.73,951.226C1112.28,951.226 1112.8,950.964 1113.13,950.52C1120.58,940.371 1131.39,933.181 1143.63,930.23C1147.87,929.19 1152.21,928.662 1156.57,928.66C1173.06,928.603 1188.68,936.132 1198.91,949.06C1199.24,949.476 1199.74,949.719 1200.28,949.719C1201.23,949.719 1202.02,948.932 1202.02,947.975C1202.02,947.581 1201.88,947.198 1201.64,946.89Z" style="fill:rgb(0,49,104);fill-rule:nonzero;"/>
                </g>
                <g transform="matrix(4.16667,0,0,4.16667,-1135.22,6095.6)">
                    <path d="M1111.73,952.49C1111.73,952.49 1111.72,952.49 1111.72,952.49C1110.07,952.49 1108.72,951.136 1108.72,949.49C1108.72,948.845 1108.92,948.217 1109.31,947.7C1117.42,936.656 1129.18,928.834 1142.5,925.63C1164.78,920.139 1188.32,928.155 1202.62,946.1C1203.04,946.63 1203.27,947.288 1203.27,947.965C1203.27,949.611 1201.92,950.965 1200.27,950.965C1199.36,950.965 1198.49,950.547 1197.92,949.83C1187.9,937.249 1172.66,929.906 1156.58,929.906C1139.86,929.906 1124.1,937.837 1114.14,951.26C1113.58,952.029 1112.68,952.486 1111.73,952.49ZM1156.57,926.43C1152.03,926.432 1147.51,926.979 1143.1,928.06C1130.35,931.133 1119.1,938.621 1111.34,949.19C1111.28,949.275 1111.24,949.379 1111.24,949.486C1111.24,949.641 1111.32,949.788 1111.44,949.88C1111.52,949.957 1111.63,950.001 1111.74,950.001C1111.9,950.001 1112.05,949.912 1112.12,949.77C1119.75,939.385 1130.81,932.025 1143.33,929C1147.66,927.936 1152.11,927.396 1156.57,927.39C1173.44,927.334 1189.43,935.04 1199.89,948.27C1199.97,948.369 1200.09,948.433 1200.22,948.45C1200.35,948.462 1200.48,948.422 1200.58,948.34C1200.79,948.174 1200.82,947.869 1200.66,947.66C1190,934.206 1173.73,926.371 1156.57,926.43Z" style="fill:rgb(0,49,104);fill-rule:nonzero;"/>
                </g>
                <g transform="matrix(4.16667,0,0,4.16667,-1135.22,6095.6)">
                    <path d="M1182.73,947.82C1175.19,942.149 1166,939.097 1156.57,939.13C1133.65,939.132 1114.43,957.184 1113,980.06C1112.94,981.017 1113.68,981.851 1114.64,981.91L1114.74,981.91C1115.66,981.912 1116.43,981.186 1116.48,980.27C1117.78,959.222 1135.46,942.606 1156.55,942.62C1174.3,942.53 1190.06,954.314 1195,971.36C1195.25,972.06 1195.91,972.531 1196.65,972.531C1197.61,972.531 1198.4,971.741 1198.4,970.781C1198.4,970.639 1198.38,970.498 1198.35,970.36C1195.73,961.353 1190.24,953.44 1182.73,947.82Z" style="fill:rgb(0,49,104);fill-rule:nonzero;"/>
                </g>
                <g transform="matrix(4.16667,0,0,4.16667,-1135.22,6095.6)">
                    <path d="M1114.76,983.17C1114.76,983.17 1114.76,983.17 1114.76,983.17C1113.11,983.17 1111.76,981.816 1111.76,980.17C1111.76,980.11 1111.76,980.05 1111.76,979.99C1113.23,956.451 1133,937.872 1156.58,937.872C1166.27,937.872 1175.71,941.009 1183.47,946.81C1191.22,952.581 1196.88,960.724 1199.59,970C1199.69,970.308 1199.75,970.63 1199.75,970.955C1199.75,972.6 1198.39,973.955 1196.75,973.955C1195.38,973.955 1194.18,973.022 1193.84,971.7C1189.06,955.177 1173.77,943.755 1156.57,943.85C1136.15,943.868 1119.04,959.951 1117.76,980.33C1117.67,981.915 1116.35,983.172 1114.76,983.17ZM1156.57,940.38C1153.15,940.386 1149.75,940.799 1146.43,941.61C1135.52,944.27 1126.11,951.191 1120.32,960.82C1116.8,966.684 1114.74,973.312 1114.32,980.14C1114.31,980.405 1114.52,980.634 1114.78,980.65C1115.04,980.662 1115.27,980.463 1115.3,980.2C1116.64,958.498 1134.87,941.364 1156.61,941.364C1174.89,941.364 1191.11,953.478 1196.3,971.01C1196.34,971.247 1196.54,971.423 1196.78,971.423C1197.05,971.423 1197.27,971.201 1197.27,970.933C1197.27,970.863 1197.26,970.794 1197.23,970.73C1191.95,952.77 1175.34,940.355 1156.62,940.38L1156.57,940.38Z" style="fill:rgb(0,49,104);fill-rule:nonzero;"/>
                </g>
                <g transform="matrix(4.16667,0,0,4.16667,-1135.22,6095.6)">
                    <path d="M1156.57,953.08C1140.3,953.087 1126.91,966.478 1126.91,982.75C1126.91,985.136 1127.2,987.513 1127.77,989.83C1128.18,991.48 1128.34,994.78 1126.77,1001.11C1126.74,1001.25 1126.72,1001.39 1126.72,1001.53C1126.72,1002.33 1127.27,1003.03 1128.05,1003.22C1128.19,1003.24 1128.33,1003.24 1128.47,1003.22C1129.27,1003.22 1129.97,1002.67 1130.16,1001.89C1131.55,996.26 1131.89,991.89 1131.16,988.95C1127.73,975.011 1136.37,960.719 1150.31,957.28C1152.36,956.778 1154.46,956.523 1156.57,956.52C1168.6,956.498 1179.16,964.79 1182,976.48C1183.24,981.671 1183.84,986.994 1183.79,992.33C1183.79,993.286 1184.57,994.075 1185.53,994.08C1186.48,994.075 1187.27,993.294 1187.28,992.34C1187.33,986.72 1186.69,981.115 1185.38,975.65C1182.15,962.423 1170.19,953.05 1156.57,953.08Z" style="fill:rgb(0,49,104);fill-rule:nonzero;"/>
                </g>
                <g transform="matrix(4.16667,0,0,4.16667,-1135.22,6095.6)">
                    <path d="M1128.47,1004.52C1128.47,1004.52 1128.47,1004.52 1128.46,1004.52C1126.82,1004.52 1125.46,1003.17 1125.46,1001.52C1125.46,1001.28 1125.49,1001.04 1125.55,1000.81C1127.13,994.4 1126.86,991.37 1126.55,990.14C1125.81,987.459 1125.43,984.69 1125.43,981.909C1125.43,964.952 1139.39,950.999 1156.34,950.999C1170.84,950.999 1183.48,961.189 1186.55,975.35C1187.88,980.917 1188.53,986.626 1188.48,992.35C1188.48,993.996 1187.13,995.35 1185.48,995.35C1183.83,995.35 1182.48,993.996 1182.48,992.35C1182.53,987.118 1181.94,981.899 1180.73,976.81C1178,965.716 1167.96,957.857 1156.54,957.857C1142.87,957.857 1131.63,969.103 1131.63,982.77C1131.63,984.779 1131.87,986.78 1132.35,988.73C1133.13,991.88 1132.79,996.44 1131.35,1002.27C1131.01,1003.58 1129.83,1004.51 1128.47,1004.52ZM1156.57,954.34C1154.28,954.344 1152,954.619 1149.77,955.16C1134.65,958.897 1125.28,974.407 1129,989.53C1129.64,992.13 1129.31,996.12 1128,1001.41C1127.97,1001.67 1128.12,1001.91 1128.36,1002C1128.75,1002 1128.9,1001.86 1128.95,1001.64C1130.29,996.21 1130.63,992.05 1129.95,989.3C1129.42,987.153 1129.15,984.951 1129.15,982.74C1129.15,967.697 1141.53,955.319 1156.58,955.319C1169.15,955.319 1180.19,963.97 1183.2,976.18C1184.47,981.468 1185.09,986.892 1185.03,992.33C1185.06,992.588 1185.26,992.793 1185.52,992.82C1185.79,992.82 1186.01,992.599 1186.01,992.33C1186.06,986.814 1185.44,981.313 1184.15,975.95C1181.06,963.287 1169.61,954.313 1156.57,954.34Z" style="fill:rgb(0,49,104);fill-rule:nonzero;"/>
                </g>
                <g transform="matrix(4.16667,0,0,4.16667,-1135.22,6095.6)">
                    <path d="M1156.57,967C1147.95,967.003 1140.87,974.094 1140.87,982.71C1140.87,983.974 1141.02,985.233 1141.32,986.46C1142.62,991.71 1141.91,999.06 1139.23,1008.31C1138.97,1009.23 1139.5,1010.21 1140.42,1010.48C1140.58,1010.52 1140.74,1010.55 1140.91,1010.55C1141.68,1010.55 1142.36,1010.03 1142.58,1009.29C1145.44,999.44 1146.15,991.48 1144.71,985.62C1143.11,979.114 1147.15,972.445 1153.65,970.84C1154.61,970.609 1155.59,970.492 1156.57,970.49C1162.17,970.481 1167.1,974.337 1168.43,979.78C1170.23,987.12 1170.3,995.69 1168.61,1005.26C1168.59,1005.36 1168.58,1005.46 1168.58,1005.57C1168.58,1006.52 1169.37,1007.31 1170.33,1007.31C1171.17,1007.31 1171.89,1006.7 1172.04,1005.87C1173.82,995.87 1173.74,986.76 1171.81,978.94C1170.1,971.944 1163.77,966.987 1156.57,967Z" style="fill:rgb(0,49,104);fill-rule:nonzero;"/>
                </g>
                <g transform="matrix(4.16667,0,0,4.16667,-1135.22,6095.6)">
                    <path d="M1140.91,1011.84C1140.63,1011.84 1140.34,1011.8 1140.07,1011.72C1138.51,1011.24 1137.61,1009.58 1138.07,1008.01C1140.7,999.01 1141.4,991.83 1140.15,986.8C1139.61,985.114 1139.33,983.354 1139.33,981.583C1139.33,972.257 1147,964.583 1156.33,964.583C1164.56,964.583 1171.67,970.566 1173.08,978.68C1175.08,986.68 1175.14,995.91 1173.33,1006.13C1173.03,1007.51 1171.81,1008.5 1170.4,1008.5C1168.75,1008.5 1167.4,1007.14 1167.4,1005.5C1167.4,1005.38 1167.4,1005.25 1167.42,1005.13C1169.08,995.73 1169.02,987.33 1167.26,980.13C1166.43,974.793 1161.79,970.816 1156.39,970.816C1150.36,970.816 1145.39,975.781 1145.39,981.816C1145.39,983.025 1145.59,984.226 1145.98,985.37C1147.48,991.44 1146.76,999.63 1143.84,1009.69C1143.46,1010.98 1142.26,1011.86 1140.91,1011.84ZM1156.57,968.29C1148.65,968.313 1142.15,974.833 1142.15,982.75C1142.15,983.913 1142.29,985.071 1142.57,986.2C1143.92,991.67 1143.21,999.2 1140.47,1008.7C1140.46,1008.75 1140.45,1008.79 1140.45,1008.84C1140.45,1009.06 1140.59,1009.25 1140.8,1009.31C1141.06,1009.36 1141.31,1009.22 1141.41,1008.98C1144.2,999.34 1144.91,991.6 1143.52,985.98C1143.26,984.926 1143.13,983.845 1143.13,982.76C1143.13,975.37 1149.21,969.289 1156.6,969.289C1162.78,969.289 1168.2,973.54 1169.68,979.54C1171.53,987.05 1171.59,995.8 1169.87,1005.54C1169.83,1005.81 1170.01,1006.06 1170.27,1006.11C1170.54,1006.15 1170.79,1005.97 1170.84,1005.71C1172.58,995.84 1172.51,986.95 1170.62,979.3C1169.05,972.844 1163.21,968.268 1156.57,968.29Z" style="fill:rgb(0,49,104);fill-rule:nonzero;"/>
                </g>
                <g transform="matrix(4.16667,0,0,4.16667,-1135.22,6095.6)">
                    <path d="M1156.15,981.05C1155.38,981.242 1154.82,981.941 1154.82,982.74C1154.81,982.88 1154.81,983.02 1154.82,983.16C1155.52,986.132 1155.85,989.177 1155.82,992.23C1155.71,998.26 1154.84,1004.25 1153.21,1010.06C1153.19,1010.21 1153.19,1010.36 1153.21,1010.51C1153.21,1011.3 1153.75,1012 1154.51,1012.2C1154.66,1012.22 1154.8,1012.22 1154.95,1012.2C1155.74,1012.2 1156.44,1011.67 1156.64,1010.9C1158.34,1004.8 1159.26,998.504 1159.36,992.17C1159.39,988.837 1159.01,985.512 1158.24,982.27C1157.99,981.368 1157.06,980.822 1156.15,981.05Z" style="fill:rgb(0,49,104);fill-rule:nonzero;"/>
                </g>
                <g transform="matrix(4.16667,0,0,4.16667,-1135.22,6095.6)">
                    <path d="M1155,1013.51C1154.74,1013.51 1154.49,1013.48 1154.24,1013.41C1152.92,1013.07 1152,1011.87 1152,1010.51C1152,1010.25 1152.03,1010 1152.1,1009.75C1153.69,1004.04 1154.55,998.155 1154.66,992.23C1154.68,989.277 1154.34,986.333 1153.66,983.46C1153.27,981.864 1154.25,980.226 1155.85,979.83C1157.45,979.436 1159.08,980.424 1159.48,982.02C1160.27,985.361 1160.66,988.786 1160.63,992.22C1160.52,998.645 1159.59,1005.03 1157.87,1011.22C1157.55,1012.54 1156.36,1013.49 1155,1013.51ZM1156.6,982.25L1156.48,982.25C1156.27,982.304 1156.11,982.498 1156.11,982.72C1156.84,985.83 1157.2,989.016 1157.18,992.21C1157.06,998.351 1156.17,1004.45 1154.53,1010.37C1154.48,1010.63 1154.63,1010.88 1154.88,1010.96C1155.21,1010.96 1155.42,1010.83 1155.47,1010.61C1157.14,1004.61 1158.05,998.426 1158.15,992.2C1158.18,988.968 1157.81,985.745 1157.07,982.6C1157.04,982.474 1156.96,982.365 1156.85,982.3C1156.76,982.257 1156.67,982.239 1156.57,982.25L1156.6,982.25Z" style="fill:rgb(0,49,104);fill-rule:nonzero;"/>
                </g>
            </g>
            <g transform="matrix(1,0,0,1.0978,0,-2812.92)">
                <g transform="matrix(1,-0,-0,0.910916,1682.07,4773.33)">
                    <path d="M4682.55,4913.81L4557.55,5163.81L4432.55,4913.81L4557.55,5038.81L4682.55,4913.81Z" style="fill:rgb(0,49,104);"/>
                    <path d="M4557.55,3217.88L4557.55,5038.81" style="fill:none;stroke:rgb(0,49,104);stroke-width:41.67px;"/>
                </g>
            </g>
            <g transform="matrix(1.02402,0,0,1,-149.994,-2059.45)">
                <g transform="matrix(0.976541,-0,-0,1,1789.08,4486.67)">
                    <path d="M3613.2,3742.55L3488.2,3992.55L3363.2,3742.55L3488.2,3867.55L3613.2,3742.55Z" style="fill:rgb(0,49,104);"/>
                    <path d="M4561.82,3537.63L3488.2,3529.24L3488.2,3867.55" style="fill:none;stroke:rgb(0,49,104);stroke-width:41.67px;"/>
                </g>
            </g>
            <g transform="matrix(-1.14155,0,0,1,13368,-2059.45)">
                <g transform="matrix(-0.876,0,0,1,10236.8,4486.67)">
                    <path d="M5880.01,3742.55L5755.01,3992.55L5630.01,3742.55L5755.01,3867.55L5880.01,3742.55Z" style="fill:rgb(0,49,104);"/>
                    <path d="M4558.16,3537.63L5755.01,3529.24L5755.01,3867.55" style="fill:none;stroke:rgb(0,49,104);stroke-width:41.67px;"/>
                </g>
            </g>
            <g transform="matrix(1,0,0,1,19.9664,-2059.45)">
                <g transform="matrix(1,-0,-0,1,1662.1,4486.67)">
                    <path d="M1124.52,4589.67L999.518,4339.67L874.518,4589.67L999.518,4464.67L1124.52,4589.67Z" style="fill:rgb(0,49,104);"/>
                    <path d="M1124.52,4785.85L999.518,5035.85L874.518,4785.85L999.518,4910.85L1124.52,4785.85Z" style="fill:rgb(0,49,104);"/>
                    <path d="M999.518,4464.67L999.518,4910.85" style="fill:none;stroke:rgb(0,49,104);stroke-width:41.67px;"/>
                </g>
            </g>
            <g transform="matrix(1,0,0,1,7433.79,-2059.45)">
                <g transform="matrix(1,-0,-0,1,-5751.72,4486.67)">
                    <path d="M8538.34,4589.67L8413.34,4339.67L8288.34,4589.67L8413.34,4464.67L8538.34,4589.67Z" style="fill:rgb(0,49,104);"/>
                    <path d="M8538.34,5248.51L8413.34,5498.51L8288.34,5248.51L8413.34,5373.51L8538.34,5248.51Z" style="fill:rgb(0,49,104);"/>
                    <path d="M8413.34,4464.67C8413.34,4687.48 8413.34,5150.71 8413.34,5373.51" style="fill:none;stroke:rgb(0,49,104);stroke-width:41.67px;"/>
                </g>
            </g>
            <g transform="matrix(1,0,0,1,19.9664,-4736.9)">
                <g transform="matrix(1,-0,-0,1,1662.1,7164.12)">
                    <path d="M1124.52,896.668L999.518,646.668L874.518,896.668L999.518,771.668L1124.52,896.668Z" style="fill:rgb(0,49,104);"/>
                    <path d="M1124.52,3258.85L999.518,3508.85L874.518,3258.85L999.518,3383.85L1124.52,3258.85Z" style="fill:rgb(0,49,104);"/>
                    <path d="M999.518,771.668L999.518,3383.85" style="fill:none;stroke:rgb(0,49,104);stroke-width:41.67px;"/>
                </g>
            </g>
            <g transform="matrix(6.12323e-17,1,-1,6.12323e-17,11383.4,1314.48)">
                <g transform="matrix(6.12323e-17,-1,1,6.12323e-17,1112.74,9701.29)">
                    <path d="M1640.51,1673.88L1890.51,1548.88L1640.51,1423.88L1765.51,1548.88L1640.51,1673.88Z" style="fill:rgb(0,49,104);"/>
                    <path d="M1765.51,1548.88L1002.8,1548.88" style="fill:none;stroke:rgb(0,49,104);stroke-width:41.67px;"/>
                </g>
            </g>
            <g transform="matrix(1,0,0,1.43726,7481.13,-8152.28)">
                <g transform="matrix(1,-0,-0,0.695766,-5799.06,7360.86)">
                    <path d="M8585.68,896.668L8460.68,646.668L8335.68,896.668L8460.68,771.668L8585.68,896.668Z" style="fill:rgb(0,49,104);"/>
                    <path d="M8128.23,2532.54L7878.89,2406.23L8129.55,2282.54L8003.89,2406.89L8128.23,2532.54Z" style="fill:rgb(0,49,104);"/>
                    <path d="M8460.68,771.668C8460.68,1173.99 8460.68,2409.29 8460.68,2409.29C8460.68,2409.29 8174.86,2407.78 8003.89,2406.89" style="fill:none;stroke:rgb(0,49,104);stroke-width:41.67px;"/>
                </g>
            </g>
            <g transform="matrix(0.437524,0,0,0.437524,5434.71,-16.7859)">
                <g transform="matrix(0.558376,0,0,0.558376,4498.89,4294.76)">
                    <text x="9023.6px" y="3944.96px" style="font-family:'ArialMT', 'Arial', sans-serif;font-size:828.263px;">Application</text>
                </g>
                <g>
                    <g transform="matrix(0.602243,0,0,0.602243,4665.97,3736.43)">
                        <path d="M11873.4,3436.29L12159.1,3722.02L12159.1,5068.58L11891.7,5336" style="fill:none;stroke:rgb(0,49,104);stroke-width:31.63px;"/>
                    </g>
                    <g transform="matrix(-0.602243,0,0,0.602243,16638.9,3736.43)">
                        <path d="M11873.4,3436.29L12159.1,3722.02L12159.1,5068.58L11891.7,5336" style="fill:none;stroke:rgb(0,49,104);stroke-width:31.63px;"/>
                    </g>
                </g>
            </g>
            <g transform="matrix(0.437524,0,0,0.437524,-1979.11,-16.7859)">
                <g transform="matrix(0.558376,0,0,0.558376,4498.89,4294.76)">
                    <text x="9023.6px" y="3944.96px" style="font-family:'ArialMT', 'Arial', sans-serif;font-size:828.263px;">Application</text>
                </g>
                <g>
                    <g transform="matrix(0.602243,0,0,0.602243,4665.97,3736.43)">
                        <path d="M11873.4,3436.29L12159.1,3722.02L12159.1,5068.58L11891.7,5336" style="fill:none;stroke:rgb(0,49,104);stroke-width:31.63px;"/>
                    </g>
                    <g transform="matrix(-0.602243,0,0,0.602243,16638.9,3736.43)">
                        <path d="M11873.4,3436.29L12159.1,3722.02L12159.1,5068.58L11891.7,5336" style="fill:none;stroke:rgb(0,49,104);stroke-width:31.63px;"/>
                    </g>
                </g>
            </g>
            <g transform="matrix(0.244303,0,0,0.244303,7557.12,8097.15)">
                <text x="9023.6px" y="3944.96px" style="font-family:'ArialMT', 'Arial', sans-serif;font-size:828.263px;">ID-card</text>
            </g>
            <g transform="matrix(0.244303,0,0,0.244303,42.0707,8097.15)">
                <text x="9023.6px" y="3944.96px" style="font-family:'ArialMT', 'Arial', sans-serif;font-size:828.263px;">Mobile-ID</text>
            </g>
        </g>
    </g>
</svg>
